<?xml version="1.0" encoding="UTF-8" standalone="no"?>
<!DOCTYPE svg PUBLIC "-//W3C//DTD SVG 1.1//EN"
 "http://www.w3.org/Graphics/SVG/1.1/DTD/svg11.dtd">
<!-- Generated by graphviz version 2.44.0 (0)
 -->
<!-- Title: git Pages: 1 -->
<svg width="289pt" height="44pt"
 viewBox="0.00 0.00 289.00 44.00" xmlns="http://www.w3.org/2000/svg" xmlns:xlink="http://www.w3.org/1999/xlink">
<g id="graph0" class="graph" transform="scale(1 1) rotate(0) translate(4 40)">
<title>git</title>
<polygon fill="white" stroke="transparent" points="-4,4 -4,-40 285,-40 285,4 -4,4"/>
<!-- cabdedff95 -->
<g id="node1" class="node">
<title>cabdedff95</title>
<g id="a_node1"><a xlink:title="cabdedff957f7dec15f365e7c29eaead9930d618">
<ellipse fill="none" stroke="black" cx="162" cy="-18" rx="18" ry="18"/>
<text text-anchor="middle" x="162" y="-14.3" font-family="Times-Roman" font-size="14.00">C</text>
</a>
</g>
</g>
<!-- a5cbd99954 -->
<g id="node2" class="node">
<title>a5cbd99954</title>
<g id="a_node2"><a xlink:title="a5cbd999545aeabc2e102a845aeb0466f01454a2">
<ellipse fill="none" stroke="black" cx="90" cy="-18" rx="18" ry="18"/>
<text text-anchor="middle" x="90" y="-14.3" font-family="Times-Roman" font-size="14.00">B</text>
</a>
</g>
</g>
<!-- cabdedff95&#45;&gt;a5cbd99954 -->
<g id="edge3" class="edge">
<title>cabdedff95&#45;&gt;a5cbd99954</title>
<path fill="none" stroke="black" d="M143.7,-18C135.98,-18 126.71,-18 118.11,-18"/>
<polygon fill="black" stroke="black" points="118.1,-14.5 108.1,-18 118.1,-21.5 118.1,-14.5"/>
</g>
<!-- d98f949840 -->
<g id="node3" class="node">
<title>d98f949840</title>
<g id="a_node3"><a xlink:title="d98f94984057d760066ba0b300ab4930497bcba6">
<ellipse fill="none" stroke="black" cx="18" cy="-18" rx="18" ry="18"/>
<text text-anchor="middle" x="18" y="-14.3" font-family="Times-Roman" font-size="14.00">A</text>
</a>
</g>
</g>
<!-- a5cbd99954&#45;&gt;d98f949840 -->
<g id="edge2" class="edge">
<title>a5cbd99954&#45;&gt;d98f949840</title>
<path fill="none" stroke="black" d="M71.7,-18C63.98,-18 54.71,-18 46.11,-18"/>
<polygon fill="black" stroke="black" points="46.1,-14.5 36.1,-18 46.1,-21.5 46.1,-14.5"/>
</g>
<!-- master -->
<g id="node4" class="node">
<title>master</title>
<polygon fill="black" stroke="black" points="281,-36 216,-36 216,0 281,0 281,-36"/>
<text text-anchor="middle" x="248.5" y="-14.3" font-family="Times-Roman" font-size="14.00" fill="white">master</text>
</g>
<!-- master&#45;&gt;cabdedff95 -->
<g id="edge1" class="edge">
<title>master&#45;&gt;cabdedff95</title>
<path fill="none" stroke="black" stroke-dasharray="5,2" d="M215.55,-18C207.33,-18 198.55,-18 190.57,-18"/>
<polygon fill="black" stroke="black" points="190.3,-14.5 180.3,-18 190.3,-21.5 190.3,-14.5"/>
</g>
</g>
</svg>
