<?xml version="1.0" encoding="UTF-8" standalone="no"?>
<!DOCTYPE svg PUBLIC "-//W3C//DTD SVG 1.1//EN"
 "http://www.w3.org/Graphics/SVG/1.1/DTD/svg11.dtd">
<!-- Generated by graphviz version 2.44.0 (0)
 -->
<!-- Title: git Pages: 1 -->
<svg width="625pt" height="156pt"
 viewBox="0.00 0.00 624.70 156.00" xmlns="http://www.w3.org/2000/svg" xmlns:xlink="http://www.w3.org/1999/xlink">
<g id="graph0" class="graph" transform="scale(1 1) rotate(0) translate(4 152)">
<title>git</title>
<polygon fill="white" stroke="transparent" points="-4,4 -4,-152 620.7,-152 620.7,4 -4,4"/>
<!-- 28f7b382a5 -->
<g id="node1" class="node">
<title>28f7b382a5</title>
<g id="a_node1"><a xlink:title="28f7b382a52ac53f86314e5d608ebafd66de6c44">
<ellipse fill="none" stroke="black" cx="234" cy="-74" rx="18" ry="18"/>
<text text-anchor="middle" x="234" y="-70.3" font-family="Times-Roman" font-size="14.00">H</text>
</a>
</g>
</g>
<!-- cabdedff95 -->
<g id="node2" class="node">
<title>cabdedff95</title>
<g id="a_node2"><a xlink:title="cabdedff957f7dec15f365e7c29eaead9930d618">
<ellipse fill="none" stroke="black" cx="162" cy="-74" rx="18" ry="18"/>
<text text-anchor="middle" x="162" y="-70.3" font-family="Times-Roman" font-size="14.00">C</text>
</a>
</g>
</g>
<!-- 28f7b382a5&#45;&gt;cabdedff95 -->
<g id="edge4" class="edge">
<title>28f7b382a5&#45;&gt;cabdedff95</title>
<path fill="none" stroke="black" d="M215.7,-74C207.98,-74 198.71,-74 190.11,-74"/>
<polygon fill="black" stroke="black" points="190.1,-70.5 180.1,-74 190.1,-77.5 190.1,-70.5"/>
</g>
<!-- a5cbd99954 -->
<g id="node3" class="node">
<title>a5cbd99954</title>
<g id="a_node3"><a xlink:title="a5cbd999545aeabc2e102a845aeb0466f01454a2">
<ellipse fill="none" stroke="black" cx="90" cy="-74" rx="18" ry="18"/>
<text text-anchor="middle" x="90" y="-70.3" font-family="Times-Roman" font-size="14.00">B</text>
</a>
</g>
</g>
<!-- cabdedff95&#45;&gt;a5cbd99954 -->
<g id="edge7" class="edge">
<title>cabdedff95&#45;&gt;a5cbd99954</title>
<path fill="none" stroke="black" d="M143.7,-74C135.98,-74 126.71,-74 118.11,-74"/>
<polygon fill="black" stroke="black" points="118.1,-70.5 108.1,-74 118.1,-77.5 118.1,-70.5"/>
</g>
<!-- d98f949840 -->
<g id="node4" class="node">
<title>d98f949840</title>
<g id="a_node4"><a xlink:title="d98f94984057d760066ba0b300ab4930497bcba6">
<ellipse fill="none" stroke="black" cx="18" cy="-74" rx="18" ry="18"/>
<text text-anchor="middle" x="18" y="-70.3" font-family="Times-Roman" font-size="14.00">A</text>
</a>
</g>
</g>
<!-- a5cbd99954&#45;&gt;d98f949840 -->
<g id="edge11" class="edge">
<title>a5cbd99954&#45;&gt;d98f949840</title>
<path fill="none" stroke="black" d="M71.7,-74C63.98,-74 54.71,-74 46.11,-74"/>
<polygon fill="black" stroke="black" points="46.1,-70.5 36.1,-74 46.1,-77.5 46.1,-70.5"/>
</g>
<!-- 03adc6f126 -->
<g id="node5" class="node">
<title>03adc6f126</title>
<g id="a_node5"><a xlink:title="03adc6f126b5493f67779d65908ca9f70210e3e9">
<ellipse fill="none" stroke="black" cx="407.85" cy="-74" rx="18.7" ry="18.7"/>
<text text-anchor="middle" x="407.85" y="-70.3" font-family="Times-Roman" font-size="14.00">E&#39;</text>
</a>
</g>
</g>
<!-- 4983f3f754 -->
<g id="node6" class="node">
<title>4983f3f754</title>
<g id="a_node6"><a xlink:title="4983f3f754808938e9015e269fecab8675f08d09">
<ellipse fill="none" stroke="black" cx="320.5" cy="-74" rx="20.3" ry="20.3"/>
<text text-anchor="middle" x="320.5" y="-70.3" font-family="Times-Roman" font-size="14.00">D&#39;</text>
</a>
</g>
</g>
<!-- 03adc6f126&#45;&gt;4983f3f754 -->
<g id="edge9" class="edge">
<title>03adc6f126&#45;&gt;4983f3f754</title>
<path fill="none" stroke="black" d="M388.75,-74C377.74,-74 363.42,-74 350.82,-74"/>
<polygon fill="black" stroke="black" points="350.76,-70.5 340.76,-74 350.76,-77.5 350.76,-70.5"/>
</g>
<!-- 4983f3f754&#45;&gt;28f7b382a5 -->
<g id="edge8" class="edge">
<title>4983f3f754&#45;&gt;28f7b382a5</title>
<path fill="none" stroke="black" d="M300.33,-74C289.1,-74 274.75,-74 262.35,-74"/>
<polygon fill="black" stroke="black" points="262.09,-70.5 252.09,-74 262.09,-77.5 262.09,-70.5"/>
</g>
<!-- 93e1d18862 -->
<g id="node7" class="node">
<title>93e1d18862</title>
<g id="a_node7"><a xlink:title="93e1d18862102e044a4ec46bb189f5bca9ba0e05">
<ellipse fill="none" stroke="black" cx="492.2" cy="-130" rx="18" ry="18"/>
<text text-anchor="middle" x="492.2" y="-126.3" font-family="Times-Roman" font-size="14.00">G</text>
</a>
</g>
</g>
<!-- 3ef811d426 -->
<g id="node8" class="node">
<title>3ef811d426</title>
<g id="a_node8"><a xlink:title="3ef811d426c09be792a0ff6564eca82a7bd105a9">
<ellipse fill="none" stroke="black" cx="407.85" cy="-130" rx="18" ry="18"/>
<text text-anchor="middle" x="407.85" y="-126.3" font-family="Times-Roman" font-size="14.00">F</text>
</a>
</g>
</g>
<!-- 93e1d18862&#45;&gt;3ef811d426 -->
<g id="edge5" class="edge">
<title>93e1d18862&#45;&gt;3ef811d426</title>
<path fill="none" stroke="black" d="M474.13,-130C463.2,-130 448.77,-130 436.26,-130"/>
<polygon fill="black" stroke="black" points="435.89,-126.5 425.89,-130 435.89,-133.5 435.89,-126.5"/>
</g>
<!-- 973437cb00 -->
<g id="node9" class="node">
<title>973437cb00</title>
<g id="a_node9"><a xlink:title="973437cb007d2a69d6564fd7b30f3e8c347073c2">
<ellipse fill="none" stroke="black" cx="320.5" cy="-130" rx="18" ry="18"/>
<text text-anchor="middle" x="320.5" y="-126.3" font-family="Times-Roman" font-size="14.00">E</text>
</a>
</g>
</g>
<!-- 3ef811d426&#45;&gt;973437cb00 -->
<g id="edge10" class="edge">
<title>3ef811d426&#45;&gt;973437cb00</title>
<path fill="none" stroke="black" d="M389.58,-130C377.89,-130 362.21,-130 348.85,-130"/>
<polygon fill="black" stroke="black" points="348.75,-126.5 338.75,-130 348.75,-133.5 348.75,-126.5"/>
</g>
<!-- 2c0bd1c1df -->
<g id="node10" class="node">
<title>2c0bd1c1df</title>
<g id="a_node10"><a xlink:title="2c0bd1c1dfe9f76cd18b37bb0bc995e449e0094b">
<ellipse fill="none" stroke="black" cx="234" cy="-130" rx="18" ry="18"/>
<text text-anchor="middle" x="234" y="-126.3" font-family="Times-Roman" font-size="14.00">D</text>
</a>
</g>
</g>
<!-- 973437cb00&#45;&gt;2c0bd1c1df -->
<g id="edge6" class="edge">
<title>973437cb00&#45;&gt;2c0bd1c1df</title>
<path fill="none" stroke="black" d="M302.4,-130C290.83,-130 275.31,-130 262.08,-130"/>
<polygon fill="black" stroke="black" points="262.07,-126.5 252.07,-130 262.07,-133.5 262.07,-126.5"/>
</g>
<!-- 2c0bd1c1df&#45;&gt;cabdedff95 -->
<g id="edge12" class="edge">
<title>2c0bd1c1df&#45;&gt;cabdedff95</title>
<path fill="none" stroke="black" d="M219.5,-119.2C209.53,-111.22 195.75,-100.2 184.3,-91.04"/>
<polygon fill="black" stroke="black" points="186.45,-88.28 176.46,-84.76 182.08,-93.74 186.45,-88.28"/>
</g>
<!-- master -->
<g id="node11" class="node">
<title>master</title>
<polygon fill="black" stroke="black" points="353,-36 288,-36 288,0 353,0 353,-36"/>
<text text-anchor="middle" x="320.5" y="-14.3" font-family="Times-Roman" font-size="14.00" fill="white">master</text>
</g>
<!-- master&#45;&gt;28f7b382a5 -->
<g id="edge1" class="edge">
<title>master&#45;&gt;28f7b382a5</title>
<path fill="none" stroke="black" stroke-dasharray="5,2" d="M292.3,-36.03C281.14,-43.42 268.37,-51.88 257.73,-58.94"/>
<polygon fill="black" stroke="black" points="255.77,-56.04 249.36,-64.48 259.63,-61.87 255.77,-56.04"/>
</g>
<!-- topic1 -->
<g id="node12" class="node">
<title>topic1</title>
<polygon fill="black" stroke="black" points="521.7,-92 462.7,-92 462.7,-56 521.7,-56 521.7,-92"/>
<text text-anchor="middle" x="492.2" y="-70.3" font-family="Times-Roman" font-size="14.00" fill="white">topic1</text>
</g>
<!-- topic1&#45;&gt;03adc6f126 -->
<g id="edge3" class="edge">
<title>topic1&#45;&gt;03adc6f126</title>
<path fill="none" stroke="black" stroke-dasharray="5,2" d="M462.4,-74C454.14,-74 445.15,-74 436.94,-74"/>
<polygon fill="black" stroke="black" points="436.72,-70.5 426.72,-74 436.72,-77.5 436.72,-70.5"/>
</g>
<!-- topic2 -->
<g id="node13" class="node">
<title>topic2</title>
<polygon fill="black" stroke="black" points="616.7,-148 557.7,-148 557.7,-112 616.7,-112 616.7,-148"/>
<text text-anchor="middle" x="587.2" y="-126.3" font-family="Times-Roman" font-size="14.00" fill="white">topic2</text>
</g>
<!-- topic2&#45;&gt;93e1d18862 -->
<g id="edge2" class="edge">
<title>topic2&#45;&gt;93e1d18862</title>
<path fill="none" stroke="black" stroke-dasharray="5,2" d="M557.53,-130C545.68,-130 532.01,-130 520.33,-130"/>
<polygon fill="black" stroke="black" points="520.27,-126.5 510.27,-130 520.27,-133.5 520.27,-126.5"/>
</g>
</g>
</svg>
