<?xml version="1.0" encoding="UTF-8" standalone="no"?>
<!DOCTYPE svg PUBLIC "-//W3C//DTD SVG 1.1//EN"
 "http://www.w3.org/Graphics/SVG/1.1/DTD/svg11.dtd">
<!-- Generated by graphviz version 2.44.0 (0)
 -->
<!-- Title: git Pages: 1 -->
<svg width="701pt" height="130pt"
 viewBox="0.00 0.00 700.99 130.15" xmlns="http://www.w3.org/2000/svg" xmlns:xlink="http://www.w3.org/1999/xlink">
<g id="graph0" class="graph" transform="scale(1 1) rotate(0) translate(4 126.15)">
<title>git</title>
<polygon fill="white" stroke="transparent" points="-4,4 -4,-126.15 696.99,-126.15 696.99,4 -4,4"/>
<!-- 28f7b382a5 -->
<g id="node1" class="node">
<title>28f7b382a5</title>
<g id="a_node1"><a xlink:title="28f7b382a52ac53f86314e5d608ebafd66de6c44">
<ellipse fill="none" stroke="black" cx="234" cy="-46" rx="18" ry="18"/>
<text text-anchor="middle" x="234" y="-42.3" font-family="Times-Roman" font-size="14.00">H</text>
</a>
</g>
</g>
<!-- cabdedff95 -->
<g id="node2" class="node">
<title>cabdedff95</title>
<g id="a_node2"><a xlink:title="cabdedff957f7dec15f365e7c29eaead9930d618">
<ellipse fill="none" stroke="black" cx="162" cy="-46" rx="18" ry="18"/>
<text text-anchor="middle" x="162" y="-42.3" font-family="Times-Roman" font-size="14.00">C</text>
</a>
</g>
</g>
<!-- 28f7b382a5&#45;&gt;cabdedff95 -->
<g id="edge6" class="edge">
<title>28f7b382a5&#45;&gt;cabdedff95</title>
<path fill="none" stroke="black" d="M215.7,-46C207.98,-46 198.71,-46 190.11,-46"/>
<polygon fill="black" stroke="black" points="190.1,-42.5 180.1,-46 190.1,-49.5 190.1,-42.5"/>
</g>
<!-- a5cbd99954 -->
<g id="node3" class="node">
<title>a5cbd99954</title>
<g id="a_node3"><a xlink:title="a5cbd999545aeabc2e102a845aeb0466f01454a2">
<ellipse fill="none" stroke="black" cx="90" cy="-46" rx="18" ry="18"/>
<text text-anchor="middle" x="90" y="-42.3" font-family="Times-Roman" font-size="14.00">B</text>
</a>
</g>
</g>
<!-- cabdedff95&#45;&gt;a5cbd99954 -->
<g id="edge7" class="edge">
<title>cabdedff95&#45;&gt;a5cbd99954</title>
<path fill="none" stroke="black" d="M143.7,-46C135.98,-46 126.71,-46 118.11,-46"/>
<polygon fill="black" stroke="black" points="118.1,-42.5 108.1,-46 118.1,-49.5 118.1,-42.5"/>
</g>
<!-- d98f949840 -->
<g id="node4" class="node">
<title>d98f949840</title>
<g id="a_node4"><a xlink:title="d98f94984057d760066ba0b300ab4930497bcba6">
<ellipse fill="none" stroke="black" cx="18" cy="-46" rx="18" ry="18"/>
<text text-anchor="middle" x="18" y="-42.3" font-family="Times-Roman" font-size="14.00">A</text>
</a>
</g>
</g>
<!-- a5cbd99954&#45;&gt;d98f949840 -->
<g id="edge4" class="edge">
<title>a5cbd99954&#45;&gt;d98f949840</title>
<path fill="none" stroke="black" d="M71.7,-46C63.98,-46 54.71,-46 46.11,-46"/>
<polygon fill="black" stroke="black" points="46.1,-42.5 36.1,-46 46.1,-49.5 46.1,-42.5"/>
</g>
<!-- 03adc6f126 -->
<g id="node5" class="node">
<title>03adc6f126</title>
<g id="a_node5"><a xlink:title="03adc6f126b5493f67779d65908ca9f70210e3e9">
<ellipse fill="none" stroke="black" cx="407.85" cy="-74" rx="18.7" ry="18.7"/>
<text text-anchor="middle" x="407.85" y="-70.3" font-family="Times-Roman" font-size="14.00">E&#39;</text>
</a>
</g>
</g>
<!-- 4983f3f754 -->
<g id="node6" class="node">
<title>4983f3f754</title>
<g id="a_node6"><a xlink:title="4983f3f754808938e9015e269fecab8675f08d09">
<ellipse fill="none" stroke="black" cx="320.5" cy="-74" rx="20.3" ry="20.3"/>
<text text-anchor="middle" x="320.5" y="-70.3" font-family="Times-Roman" font-size="14.00">D&#39;</text>
</a>
</g>
</g>
<!-- 03adc6f126&#45;&gt;4983f3f754 -->
<g id="edge10" class="edge">
<title>03adc6f126&#45;&gt;4983f3f754</title>
<path fill="none" stroke="black" d="M388.75,-74C377.74,-74 363.42,-74 350.82,-74"/>
<polygon fill="black" stroke="black" points="350.76,-70.5 340.76,-74 350.76,-77.5 350.76,-70.5"/>
</g>
<!-- 4983f3f754&#45;&gt;28f7b382a5 -->
<g id="edge8" class="edge">
<title>4983f3f754&#45;&gt;28f7b382a5</title>
<path fill="none" stroke="black" d="M301.16,-67.92C289.44,-64.04 274.06,-58.94 261.08,-54.64"/>
<polygon fill="black" stroke="black" points="261.89,-51.22 251.3,-51.4 259.69,-57.87 261.89,-51.22"/>
</g>
<!-- c7ce4dae20 -->
<g id="node7" class="node">
<title>c7ce4dae20</title>
<g id="a_node7"><a xlink:title="c7ce4dae20240312c29ce05db348b4756ad50b35">
<ellipse fill="none" stroke="black" cx="577.84" cy="-102" rx="20.3" ry="20.3"/>
<text text-anchor="middle" x="577.84" y="-98.3" font-family="Times-Roman" font-size="14.00">G&#39;</text>
</a>
</g>
</g>
<!-- 3050255df3 -->
<g id="node8" class="node">
<title>3050255df3</title>
<g id="a_node8"><a xlink:title="3050255df382bf27eca3c1b6ef6daa76daf9c026">
<ellipse fill="none" stroke="black" cx="492.2" cy="-102" rx="18.7" ry="18.7"/>
<text text-anchor="middle" x="492.2" y="-98.3" font-family="Times-Roman" font-size="14.00">F&#39;</text>
</a>
</g>
</g>
<!-- c7ce4dae20&#45;&gt;3050255df3 -->
<g id="edge5" class="edge">
<title>c7ce4dae20&#45;&gt;3050255df3</title>
<path fill="none" stroke="black" d="M557.44,-102C546.73,-102 533.22,-102 521.37,-102"/>
<polygon fill="black" stroke="black" points="521.06,-98.5 511.06,-102 521.06,-105.5 521.06,-98.5"/>
</g>
<!-- 3050255df3&#45;&gt;03adc6f126 -->
<g id="edge9" class="edge">
<title>3050255df3&#45;&gt;03adc6f126</title>
<path fill="none" stroke="black" d="M474.13,-96.2C462.98,-92.41 448.19,-87.38 435.5,-83.06"/>
<polygon fill="black" stroke="black" points="436.48,-79.7 425.89,-79.79 434.23,-86.33 436.48,-79.7"/>
</g>
<!-- master -->
<g id="node9" class="node">
<title>master</title>
<polygon fill="black" stroke="black" points="353,-36 288,-36 288,0 353,0 353,-36"/>
<text text-anchor="middle" x="320.5" y="-14.3" font-family="Times-Roman" font-size="14.00" fill="white">master</text>
</g>
<!-- master&#45;&gt;28f7b382a5 -->
<g id="edge1" class="edge">
<title>master&#45;&gt;28f7b382a5</title>
<path fill="none" stroke="black" stroke-dasharray="5,2" d="M287.55,-28.59C278.78,-31.49 269.38,-34.61 260.99,-37.39"/>
<polygon fill="black" stroke="black" points="259.75,-34.11 251.36,-40.58 261.95,-40.76 259.75,-34.11"/>
</g>
<!-- topic1 -->
<g id="node10" class="node">
<title>topic1</title>
<polygon fill="black" stroke="black" points="521.7,-65 462.7,-65 462.7,-29 521.7,-29 521.7,-65"/>
<text text-anchor="middle" x="492.2" y="-43.3" font-family="Times-Roman" font-size="14.00" fill="white">topic1</text>
</g>
<!-- topic1&#45;&gt;03adc6f126 -->
<g id="edge2" class="edge">
<title>topic1&#45;&gt;03adc6f126</title>
<path fill="none" stroke="black" stroke-dasharray="5,2" d="M462.4,-56.44C453.82,-59.25 444.46,-62.32 436,-65.1"/>
<polygon fill="black" stroke="black" points="434.64,-61.86 426.23,-68.3 436.82,-68.51 434.64,-61.86"/>
</g>
<!-- topic2 -->
<g id="node11" class="node">
<title>topic2</title>
<polygon fill="black" stroke="black" points="692.99,-120 633.99,-120 633.99,-84 692.99,-84 692.99,-120"/>
<text text-anchor="middle" x="663.49" y="-98.3" font-family="Times-Roman" font-size="14.00" fill="white">topic2</text>
</g>
<!-- topic2&#45;&gt;c7ce4dae20 -->
<g id="edge3" class="edge">
<title>topic2&#45;&gt;c7ce4dae20</title>
<path fill="none" stroke="black" stroke-dasharray="5,2" d="M633.71,-102C625.56,-102 616.67,-102 608.48,-102"/>
<polygon fill="black" stroke="black" points="608.21,-98.5 598.21,-102 608.21,-105.5 608.21,-98.5"/>
</g>
</g>
</svg>
