<?xml version="1.0" encoding="UTF-8" standalone="no"?>
<!DOCTYPE svg PUBLIC "-//W3C//DTD SVG 1.1//EN"
 "http://www.w3.org/Graphics/SVG/1.1/DTD/svg11.dtd">
<!-- Generated by graphviz version 2.44.0 (0)
 -->
<!-- Title: git Pages: 1 -->
<svg width="451pt" height="98pt"
 viewBox="0.00 0.00 451.00 98.00" xmlns="http://www.w3.org/2000/svg" xmlns:xlink="http://www.w3.org/1999/xlink">
<g id="graph0" class="graph" transform="scale(1 1) rotate(0) translate(4 94)">
<title>git</title>
<polygon fill="white" stroke="transparent" points="-4,4 -4,-94 447,-94 447,4 -4,4"/>
<!-- cabdedff95 -->
<g id="node1" class="node">
<title>cabdedff95</title>
<g id="a_node1"><a xlink:title="cabdedff957f7dec15f365e7c29eaead9930d618">
<ellipse fill="none" stroke="black" cx="162" cy="-45" rx="18" ry="18"/>
<text text-anchor="middle" x="162" y="-41.3" font-family="Times-Roman" font-size="14.00">C</text>
</a>
</g>
</g>
<!-- a5cbd99954 -->
<g id="node2" class="node">
<title>a5cbd99954</title>
<g id="a_node2"><a xlink:title="a5cbd999545aeabc2e102a845aeb0466f01454a2">
<ellipse fill="none" stroke="black" cx="90" cy="-45" rx="18" ry="18"/>
<text text-anchor="middle" x="90" y="-41.3" font-family="Times-Roman" font-size="14.00">B</text>
</a>
</g>
</g>
<!-- cabdedff95&#45;&gt;a5cbd99954 -->
<g id="edge6" class="edge">
<title>cabdedff95&#45;&gt;a5cbd99954</title>
<path fill="none" stroke="black" d="M143.7,-45C135.98,-45 126.71,-45 118.11,-45"/>
<polygon fill="black" stroke="black" points="118.1,-41.5 108.1,-45 118.1,-48.5 118.1,-41.5"/>
</g>
<!-- d98f949840 -->
<g id="node3" class="node">
<title>d98f949840</title>
<g id="a_node3"><a xlink:title="d98f94984057d760066ba0b300ab4930497bcba6">
<ellipse fill="none" stroke="black" cx="18" cy="-45" rx="18" ry="18"/>
<text text-anchor="middle" x="18" y="-41.3" font-family="Times-Roman" font-size="14.00">A</text>
</a>
</g>
</g>
<!-- a5cbd99954&#45;&gt;d98f949840 -->
<g id="edge4" class="edge">
<title>a5cbd99954&#45;&gt;d98f949840</title>
<path fill="none" stroke="black" d="M71.7,-45C63.98,-45 54.71,-45 46.11,-45"/>
<polygon fill="black" stroke="black" points="46.1,-41.5 36.1,-45 46.1,-48.5 46.1,-41.5"/>
</g>
<!-- 973437cb00 -->
<g id="node4" class="node">
<title>973437cb00</title>
<g id="a_node4"><a xlink:title="973437cb007d2a69d6564fd7b30f3e8c347073c2">
<ellipse fill="none" stroke="black" cx="335" cy="-72" rx="18" ry="18"/>
<text text-anchor="middle" x="335" y="-68.3" font-family="Times-Roman" font-size="14.00">E</text>
</a>
</g>
</g>
<!-- 2c0bd1c1df -->
<g id="node5" class="node">
<title>2c0bd1c1df</title>
<g id="a_node5"><a xlink:title="2c0bd1c1dfe9f76cd18b37bb0bc995e449e0094b">
<ellipse fill="none" stroke="black" cx="248.5" cy="-72" rx="18" ry="18"/>
<text text-anchor="middle" x="248.5" y="-68.3" font-family="Times-Roman" font-size="14.00">D</text>
</a>
</g>
</g>
<!-- 973437cb00&#45;&gt;2c0bd1c1df -->
<g id="edge3" class="edge">
<title>973437cb00&#45;&gt;2c0bd1c1df</title>
<path fill="none" stroke="black" d="M316.9,-72C305.33,-72 289.81,-72 276.58,-72"/>
<polygon fill="black" stroke="black" points="276.57,-68.5 266.57,-72 276.57,-75.5 276.57,-68.5"/>
</g>
<!-- 2c0bd1c1df&#45;&gt;cabdedff95 -->
<g id="edge5" class="edge">
<title>2c0bd1c1df&#45;&gt;cabdedff95</title>
<path fill="none" stroke="black" d="M231.21,-66.79C219.28,-62.98 202.86,-57.74 189.11,-53.34"/>
<polygon fill="black" stroke="black" points="189.83,-49.9 179.24,-50.19 187.7,-56.57 189.83,-49.9"/>
</g>
<!-- master -->
<g id="node6" class="node">
<title>master</title>
<polygon fill="black" stroke="black" points="281,-36 216,-36 216,0 281,0 281,-36"/>
<text text-anchor="middle" x="248.5" y="-14.3" font-family="Times-Roman" font-size="14.00" fill="white">master</text>
</g>
<!-- master&#45;&gt;cabdedff95 -->
<g id="edge2" class="edge">
<title>master&#45;&gt;cabdedff95</title>
<path fill="none" stroke="black" stroke-dasharray="5,2" d="M215.55,-28.21C206.78,-31.01 197.38,-34.01 188.99,-36.7"/>
<polygon fill="black" stroke="black" points="187.82,-33.39 179.36,-39.77 189.95,-40.06 187.82,-33.39"/>
</g>
<!-- work -->
<g id="node7" class="node">
<title>work</title>
<polygon fill="black" stroke="black" points="443,-90 389,-90 389,-54 443,-54 443,-90"/>
<text text-anchor="middle" x="416" y="-68.3" font-family="Times-Roman" font-size="14.00" fill="white">work</text>
</g>
<!-- work&#45;&gt;973437cb00 -->
<g id="edge1" class="edge">
<title>work&#45;&gt;973437cb00</title>
<path fill="none" stroke="black" stroke-dasharray="5,2" d="M388.69,-72C380.58,-72 371.63,-72 363.44,-72"/>
<polygon fill="black" stroke="black" points="363.25,-68.5 353.25,-72 363.25,-75.5 363.25,-68.5"/>
</g>
</g>
</svg>
